<?xml version="1.0" encoding="iso-8859-1"?>
<!-- Generator: Adobe Illustrator 19.0.0, SVG Export Plug-In . SVG Version: 6.00 Build 0)  -->
<svg version="1.1" id="Layer_1" xmlns="http://www.w3.org/2000/svg" xmlns:xlink="http://www.w3.org/1999/xlink" x="0px" y="0px"
	 viewBox="0 0 511.999 511.999" style="enable-background:new 0 0 511.999 511.999;" xml:space="preserve">
<g>
	<g>
		<path d="M256,351.996c-5.89,0-10.672,4.781-10.672,10.672S250.109,373.34,256,373.34s10.656-4.781,10.656-10.672
			S261.89,351.996,256,351.996z"/>
	</g>
</g>
<g>
	<g>
		<path d="M394.656,138.668H117.328c-5.891,0-10.672,4.781-10.672,10.672s4.782,10.664,10.672,10.664h277.328
			c5.891,0,10.672-4.773,10.672-10.664C405.328,143.449,400.547,138.668,394.656,138.668z"/>
	</g>
</g>
<g>
	<g>
		<path d="M501.328,32.004H10.656C4.766,32.004,0,36.777,0,42.668v341.328c0,5.906,4.766,10.672,10.656,10.672h177.031l-12.766,64
			h-4.266c-5.891,0-10.656,4.781-10.656,10.672s4.766,10.656,10.656,10.656h320c11.781,0,21.344-9.547,21.344-21.328v-416
			C512,36.777,507.219,32.004,501.328,32.004z M21.328,373.34v-21.344h21.328H256h21.328h32v21.344H256H21.328z M64,330.668v-64
			h170.656v64H64z M298.656,330.668v-64h10.672v64H298.656z M309.329,458.668H196.672l12.766-63.922h99.891V458.668z
			 M309.328,192.004v10.664H64V96.004h384v74.664H330.656C318.875,170.668,309.328,180.223,309.328,192.004z M490.656,458.668h-80
			h-80V437.34h80h80V458.668z M490.656,415.996h-160v-96h160V415.996z M490.656,298.668h-160V192.004h160V298.668z M490.656,170.668
			h-21.328v-96H42.656v149.336h266.672v21.336h-32v85.328H256V245.34H42.656v85.328H21.328V53.34h469.328V170.668z"/>
	</g>
</g>
<g>
	<g>
		<path d="M410.656,437.34c-5.891,0-10.656,4.781-10.656,10.656c0,5.906,4.766,10.672,10.656,10.672s10.672-4.766,10.672-10.672
			C421.328,442.121,416.547,437.34,410.656,437.34z"/>
	</g>
</g>
<g>
	<g>
		<path d="M458.656,234.668h-96.078v0.008C356.719,234.723,352,239.473,352,245.34c0,5.859,4.719,10.609,10.578,10.656v0.008h96.078
			c5.891,0,10.672-4.773,10.672-10.664C469.328,239.441,464.547,234.668,458.656,234.668z"/>
	</g>
</g>
<g>
	<g>
		<path d="M458.656,341.34h-96c-5.891,0-10.656,4.781-10.656,10.656c0,5.906,4.766,10.672,10.656,10.672h96
			c5.891,0,10.672-4.766,10.672-10.672C469.328,346.121,464.547,341.34,458.656,341.34z"/>
	</g>
</g>
<g>
	<g>
		<path d="M426.656,373.34h-63.875c-0.031,0-0.078,0-0.125,0c-5.891,0-10.656,4.781-10.656,10.656
			c0,5.906,4.766,10.672,10.656,10.672c0.047,0,0.094,0,0.125-0.016v0.016h63.875c5.891,0,10.672-4.766,10.672-10.672
			C437.328,378.121,432.547,373.34,426.656,373.34z"/>
	</g>
</g>
<g>
</g>
<g>
</g>
<g>
</g>
<g>
</g>
<g>
</g>
<g>
</g>
<g>
</g>
<g>
</g>
<g>
</g>
<g>
</g>
<g>
</g>
<g>
</g>
<g>
</g>
<g>
</g>
<g>
</g>
</svg>
